<svg height="512" viewBox="0 0 50 60" width="512" xmlns="http://www.w3.org/2000/svg"><g id="Page-1" fill="none" fill-rule="evenodd"><g id="014---Bookmark" fill-rule="nonzero"><path id="Shape" d="m49 5v50c0 2.209139-1.790861 4-4 4h-37v-58h19v20c0 .3787721.2140024.7250352.5527864.8944272s.744196.132836 1.0472136-.0944272l5.8-4.35c.3544214-.2700476.8455786-.2700476 1.2 0l5.8 4.35c.3030176.2272632.7084296.2638192 1.0472136.0944272s.5527864-.5156551.5527864-.8944272v-20h2c2.209139 0 4 1.790861 4 4z" fill="#ffdc00"/><path id="Shape" d="m45 1h-2v.141c1.7632911.4512638 2.9975113 2.03888229 3 3.859v50c0 2.209139-1.790861 4-4 4h3c2.209139 0 4-1.790861 4-4v-50c0-2.209139-1.790861-4-4-4z" fill="#fec108"/><path id="Shape" d="m8 1v58h-3c-2.209139 0-4-1.790861-4-4v-50c0-2.209139 1.790861-4 4-4z" fill="#f44335"/><path id="Shape" d="m43 1v20c0 .3787721-.2140024.7250352-.5527864.8944272s-.744196.132836-1.0472136-.0944272l-5.8-4.35c-.3544214-.2700476-.8455786-.2700476-1.2 0l-5.8 4.35c-.3030176.2272632-.7084296.2638192-1.0472136.0944272s-.5527864-.5156551-.5527864-.8944272v-20z" fill="#ff9801"/><path id="Shape" d="m40 1v19.75l1.4 1.05c.3030176.2272632.7084296.2638192 1.0472136.0944272s.5527864-.5156551.5527864-.8944272v-20z" fill="#f57c00"/><path id="Shape" d="m43 56h-5c-.5522847 0-1-.4477153-1-1s.4477153-1 1-1h5c.5522847 0 1-.4477153 1-1v-4c0-.5522847.4477153-1 1-1s1 .4477153 1 1v4c0 1.6568542-1.3431458 3-3 3z" fill="#ff9801"/><path id="Shape" d="m12 10c-.5522847 0-1-.44771525-1-1v-3c0-.55228475.4477153-1 1-1s1 .44771525 1 1v3c0 .55228475-.4477153 1-1 1z" fill="#f5f5f5"/><path id="Shape" d="m12 60c-.5522847 0-1-.4477153-1-1v-46c0-.5522847.4477153-1 1-1s1 .4477153 1 1v46c0 .5522847-.4477153 1-1 1z" fill="#f5f5f5"/><path id="Shape" d="m34 56h-5c-.5522847 0-1-.4477153-1-1s.4477153-1 1-1h5c.5522847 0 1 .4477153 1 1s-.4477153 1-1 1z" fill="#ff9801"/><path id="Shape" d="m5 60h40c2.7600532-.0033061 4.9966939-2.2399468 5-5v-50c-.0033061-2.76005315-2.2399468-4.99669388-5-5h-40c-2.76005315.00330612-4.99669388 2.23994685-5 5v50c.00330612 2.7600532 2.23994685 4.9966939 5 5zm43-55v50c0 1.6568542-1.3431458 3-3 3h-36v-56h17v19c0 .7575441.4280048 1.4500704 1.1055728 1.7888544.6775681.338784 1.4883919.2656721 2.0944272-.1888544l5.8-4.35 5.8 4.35c.6060353.4545265 1.4168591.5276384 2.0944272.1888544.677568-.338784 1.1055728-1.0313103 1.1055728-1.7888544v-19h1c1.6568542 0 3 1.34314575 3 3zm-20-3h14v19l-5.8-4.349c-.7118834-.5310114-1.6881166-.5310114-2.4 0l-5.8 4.349zm-26 3c0-1.65685425 1.34314575-3 3-3h2v56h-2c-1.65685425 0-3-1.3431458-3-3z" fill="#000"/></g></g></svg>